<?xml version="1.0" encoding="utf-8"?>

<svg version="1.1"
	xmlns="http://www.w3.org/2000/svg"
	xmlns:xlink="http://www.w3.org/1999/xlink"
	x="0px"
	y="0px"
	viewBox="0 0 85.1 28.8"
	style="enable-background:new 0 0 85.1 28.8;"
	xml:space="preserve">
	<path style="fill:#EA4335;"
		d="M36.4,15.1c0,3.9-3.2,7-7,7c-3.9,0-7-3.2-7-7c0-3.9,3.2-7,7-7c3.8,0,7,3,7,6.8
	C36.4,15,36.4,15.1,36.4,15.1z M33.3,15.1c0.2-2.2-1.4-4.1-3.6-4.3c-2.2-0.2-4.1,1.4-4.3,3.6c0,0.2,0,0.4,0,0.7
	c-0.2,2.2,1.4,4.1,3.6,4.3s4.1-1.4,4.3-3.6C33.3,15.6,33.3,15.4,33.3,15.1z" />
	<path style="fill:#FBBC05;"
		d="M51.5,15.1c0,3.9-3.2,7-7,7c-3.9,0-7-3.2-7-7c0-3.9,3.2-7,7-7c3.8,0,7,3,7,6.8
	C51.5,15,51.5,15.1,51.5,15.1z M48.5,15.1c0.2-2.2-1.4-4.1-3.6-4.3c-2.2-0.2-4.1,1.4-4.3,3.6c0,0.2,0,0.4,0,0.7
	c-0.2,2.2,1.4,4.1,3.6,4.3c2.2,0.2,4.1-1.4,4.3-3.6C48.5,15.6,48.5,15.4,48.5,15.1z" />
	<path style="fill:#4285F4;"
		d="M66,8.5v12.6c0,5.2-3,7.3-6.6,7.3c-2.7,0-5.2-1.6-6.2-4.1l2.7-1.1
	c0.6,1.5,1.9,2.5,3.5,2.5c2.3,0,3.7-1.4,3.7-4.1v-1H63c-0.9,1.1-2.3,1.6-3.7,1.6c-3.9-0.1-6.9-3.4-6.8-7.3c0.1-3.7,3.1-6.6,6.8-6.8
	c1.4,0,2.7,0.5,3.7,1.6h0.1V8.5L66,8.5L66,8.5z M63.3,15.2c0-2.5-1.6-4.3-3.7-4.3c-2.2,0.1-4,2-3.9,4.2c0,0,0,0.1,0,0.1
	c-0.1,2.2,1.6,4.1,3.8,4.2c0,0,0.1,0,0.1,0C61.7,19.4,63.3,17.6,63.3,15.2z" />
	<path style="fill:#34A853;"
		d="M70.8,1.1v20.6h-3V1.1H70.8z" />
	<path style="fill:#EA4335;"
		d="M82.5,17.5l2.4,1.6c-1.3,2-3.5,3.1-5.8,3.1c-3.8,0-6.9-3-6.9-6.8c0-0.1,0-0.2,0-0.3
	c0-4.2,3-7,6.6-7c3.6,0,5.4,2.9,6,4.5l0.3,0.8l-9.4,3.9c0.6,1.3,1.9,2.2,3.4,2.1C80.5,19.4,81.8,18.7,82.5,17.5L82.5,17.5z
	 M75.2,14.9l6.3-2.6c-0.5-1-1.5-1.6-2.6-1.5C76.7,10.9,75.1,12.7,75.2,14.9C75.2,14.9,75.2,14.9,75.2,14.9L75.2,14.9z" />
	<path style="fill:#4285F4;"
		d="M11,13.3v-3h10c0.1,0.6,0.2,1.2,0.1,1.8c0.1,2.6-0.8,5.1-2.6,7c-2,2.1-4.7,3.2-7.6,3.1
	c-6,0-11-4.9-11-10.9c0.1-6,5-10.9,11-10.9c2.8,0,5.5,1,7.4,3l-2.1,2.1C14.9,4,13,3.3,11,3.3c-4.3,0-7.8,3.5-7.8,7.8
	c0,0,0,0.1,0,0.1c-0.1,4.3,3.4,7.9,7.7,7.9c0,0,0.1,0,0.1,0c2.1,0.1,4.1-0.7,5.5-2.2c0.9-1,1.5-2.3,1.6-3.7L11,13.3z" />
</svg>