<?xml version="1.0" encoding="utf-8"?>
<svg version="1.1" xmlns="http://www.w3.org/2000/svg" xmlns:xlink="http://www.w3.org/1999/xlink" x="0px" y="0px" viewBox="0 0 177 28.8" style="enable-background:new 0 0 177 28.8" xml:space="preserve">
    <g>
        <path style="fill:#142c45" d="M20,0.5c-1.2,0-1.5,0.7-1.5,0.7l-5.4,12.3l-5.5-13H0l13.2,28.1c0,0.1,0.2,0.2,0.3,0.2
		s0.1-0.1,0.2-0.2c0,0,10.9-23.3,11.9-25.5c0.6-1.5,1.9-2.5,3.4-2.6C29,0.5,20,0.5,20,0.5z"/>
        <path style="fill:#142c45" d="M104.7,23.9L104.7,23.9l-7.4-11.3l9.3-12.1h-8.1L89.9,12V2c0,0,0-1.5-1.4-1.5h-9.1c0,0,2.8,0,3,3.3
		v24.6h7.5v-7.3l2.7-3.2l6.6,9.8c0,0,0.3,0.7,1.5,0.7h10C110.6,28.4,107.7,28.4,104.7,23.9z"/>
        <path style="fill:#142c45" d="M141.9,25.8c-1-2.2-11.9-25.5-11.9-25.5c0-0.1-0.2-0.2-0.3-0.2s-0.2,0.1-0.2,0.2
		c0,0-10.8,23.2-11.9,25.5c-0.6,1.5-1.9,2.5-3.5,2.6h9.1c0.6,0.1,1.1-0.2,1.5-0.7l5.1-11.5l5.1,11.5c0,0,0.3,0.7,1.5,0.7h9.1
		C143.8,28.2,142.5,27.2,141.9,25.8z"/>
        <path style="fill:#142c45" d="M170,0.5v14L152.5,0.3c-0.4-0.4-0.6-0.2-0.6,0.1v24.3c0,3.7-3,3.7-3,3.7h8.6c1.4,0,1.4-1.5,1.4-1.5
		V14.7l17.5,13.8c0.4,0.4,0.6,0.3,0.6-0.1v-28h-7V0.5z"/>
        <path style="fill:#142c45" d="M46,28.3c0,0-3,0-3-3.7V2c0,0,0-1.5-1.4-1.5h-9.1c0,0,3,0,3,3.7v22.7c0,0,0,1.5,1.4,1.5L46,28.3z"/>
        <path style="fill:#142c45" d="M66.8,24.7c0.5-1.3,0.2-2.7-0.8-3.8c-0.3,1.1-1.6,1.5-3.4,1.5c-1.5,0-3-0.5-4.2-1.5l0,0l-0.5-0.4
		c0,0-1.2-0.9-2.1,0.2s-2.8,3.6-3.1,4C54.7,27.1,64.6,30.5,66.8,24.7z"/>
        <path style="fill:#142c45" d="M60.3,1.8c-1.2,0.6-1.9,1.9-1.8,3.2c0.2,1.2,0.9,2.2,1.9,2.8c0.2-1,1-1.6,2.7-1.6
		c1.3,0,2.5,0.3,3.6,1c0,0,1.3,0.9,2.1-0.2s2.8-3.7,2.9-3.8C64.2-0.5,60.3,1.8,60.3,1.8z"/>
        <path style="fill:#009abf" d="M62.9,28.7L62.9,28.7z"/>
        <path style="fill:#009abf" d="M72.5,15.8c-1-1.7-2.9-3.1-5.9-4.1l-0.4-0.2l-2.7-0.9c-0.7-0.2-1.4-0.5-2.1-0.8
		c-2.1-1-4.7-2.7-4.1-5.7c0.7-3.5,4.4-4,6.1-4c-2.7-0.2-5.3,0.6-7.4,2.2c-1.6,1.3-2.6,3.2-2.8,5.2c-0.2,1.5,0,2.9,0.6,4.3
		c0.7,1.5,1.8,2.8,3.2,3.6c0.1,0.1,0.3,0.2,0.4,0.3c0.3,0.2,0.7,0.4,1.1,0.6l0.1,0.1c0.5,0.2,1.5,0.6,1.5,0.6l2.4,0.8l0,0l0.8,0.3
		l0.5,0.2l0.2,0.1c2.5,1,4.9,3.4,3.9,6.8c-0.7,2.2-2.7,3.8-5.1,3.8c1,0,7.3,0.1,9.6-4.6C73.9,21.5,73.9,18.4,72.5,15.8z"/>
    </g>
</svg>
